# xmcd
# Track frame offsets:
# 150
# 17445
# 48140
# 67335
# 84257
# 99700
# 119280
# 137952
# 159540
# 179712
# 198607
# 215075
# 231845
# 248872
# 272145
# 287205
# 304127
#
# Disc length: 4308 seconds
# Revision: 2
# Processed by: cddbd v1.5.1PL0 Copyright (c) Steve Scherf et al.
# Submitted via: VisiTrax 2.9.6.190 - For more info visit www.synapsa.com
#
DISCID=0510d211
DTITLE=Various Artist - Now This Is X-mas
DYEAR=1997
DGENRE=KERST
TTITLE0=Queen - A winter's Tale
TTITLE1=George Michael - Jesus to a child
TTITLE2=Backstreet boys - Christmas time
TTITLE3=Kenny G - Silent Night
TTITLE4=Natalie Cole - A song for christmas
TTITLE5=Eternal - I am Blessed
TTITLE6=Diana Ross - Someday at Christmas
TTITLE7=Barry Manilow - Medley
TTITLE8=Rob De Nijs - Vorig jaar
TTITLE9=Elton John - Step into christmas
TTITLE10=Pretenders - 2000 Miles
TTITLE11=Ann and Nancy Wilson - Here is christmas
TTITLE12=Paul McCartney - Wonderful christmas time
TTITLE13=A Few good man - Silver bells
TTITLE14=Spice Girls - Sleigh Ride
TTITLE15=TLC - Sleigh
TTITLE16=Los del Rio - Macarena Christmas
EXTD=
EXTT0=
EXTT1=
EXTT2=
EXTT3=
EXTT4=
EXTT5=
EXTT6=
EXTT7=
EXTT8=
EXTT9=
EXTT10=
EXTT11=
EXTT12=
EXTT13=
EXTT14=
EXTT15=
EXTT16=
PLAYORDER=
